<?xml version="1.0" encoding="UTF-8" standalone="no"?>
<!-- Created with Inkscape (http://www.inkscape.org/) -->

<svg
   width="163.81471mm"
   height="160.67607mm"
   viewBox="0 0 163.81471 160.67607"
   version="1.1"
   id="svg1"
   xmlns="http://www.w3.org/2000/svg"
   xmlns:svg="http://www.w3.org/2000/svg">
  <defs
     id="defs1" />
  <g
     id="layer1"
     transform="translate(-18.858036,-87.08154)">
    <path
       style="fill:none;fill-opacity:1;stroke:#000000;stroke-width:7;stroke-linecap:round;stroke-linejoin:miter;stroke-dasharray:none;stroke-dashoffset:42.3307;stroke-opacity:1;paint-order:normal"
       d="m 54.875377,124.57713 -17.280191,6.97356 c 0,0 1.513533,11.68769 7.315081,11.6768 7.749718,-0.0145 10.855991,-4.65975 10.973385,-14.72061 0.09707,-8.31872 -14.036291,-23.56487 -24.720905,-13.32444 -10.684612,10.24043 -11.356681,19.97477 -3.578879,32.52524 10.388127,16.76257 16.400771,47.63327 16.400771,47.63327 l 18.360968,-1.25148 -17.818871,11.74272 c 0,0 -1.608946,16.04847 3.680314,27.25271 3.819906,8.0917 11.496367,12.93196 20.6714,10.62677 6.011046,-1.51025 11.262159,-7.3603 9.818289,-16.32067 -1.44386,-8.96037 -8.951968,-16.64069 -16.748848,-9.6004 -5.653669,5.10505 0.677129,12.24075 0.677129,12.24075 l 12.241398,-8.46557"
       id="path5" />
    <path
       style="fill:none;fill-opacity:1;stroke:#000000;stroke-width:7;stroke-linecap:round;stroke-linejoin:miter;stroke-dasharray:none;stroke-dashoffset:42.3307;stroke-opacity:1;paint-order:normal"
       d="m 37.525933,111.88014 c 0,0 13.395837,-3.06936 19.168083,-3.80312 4.57811,-0.58196 9.49552,-1.41791 14.968949,-3.51376 C 86.203726,98.99541 91.529411,85.973945 105,92.027627 c 12.80289,5.753615 3.72917,21.758643 -1.46875,24.638763 -5.197921,2.88012 -16.012837,5.83774 -25.253577,8.71786 -9.24075,2.88012 -26.564679,15.86687 -26.564679,15.86687"
       id="path6" />
    <path
       style="fill:none;fill-opacity:1;stroke:#000000;stroke-width:7;stroke-linecap:round;stroke-linejoin:miter;stroke-dasharray:none;stroke-dashoffset:42.3307;stroke-opacity:1;paint-order:normal"
       d="m 76.012078,239.2431 c 10.854362,-15.3759 28.277222,-22.78858 53.508772,-26.2527 15.73812,-2.16073 15.07691,-17.95761 9.24075,-22.08092 -6.17692,-4.36407 -12.45209,-4.67956 -23.16155,3.6981 C 99.142488,207.48178 68.00897,215.044 68.00897,215.044"
       id="path7" />
    <path
       style="fill:none;fill-opacity:1;stroke:#000000;stroke-width:7;stroke-linecap:round;stroke-linejoin:miter;stroke-dasharray:none;stroke-dashoffset:42.3307;stroke-opacity:1;paint-order:normal"
       d="m 99.524517,118.51193 c -0.28244,7.42177 1.180843,20.36261 1.180843,20.36261 l -9.033355,10.8738 10.541515,-2.20339 c 0,0 4.05428,15.74379 7.09176,23.25823 2.77558,6.86654 10.1085,19.78629 10.1085,19.78629"
       id="path8" />
    <text
       xml:space="preserve"
       style="font-style:normal;font-variant:normal;font-weight:normal;font-stretch:normal;font-size:48.3395px;line-height:0;font-family:Gigi;-inkscape-font-specification:Gigi;text-align:start;writing-mode:lr-tb;direction:ltr;text-anchor:start;fill:#beefc1;stroke:#000000;stroke-width:0;stroke-linejoin:bevel;stroke-dasharray:none;stroke-dashoffset:42.3307;stroke-opacity:0.68059"
       x="-20.429216"
       y="182.45992"
       id="text10"
       transform="matrix(0.88490596,-0.392268,0.35722641,0.97170948,0,0)"><tspan
         id="tspan10"
         style="font-style:normal;font-variant:normal;font-weight:normal;font-stretch:normal;font-family:'Blackadder ITC';-inkscape-font-specification:'Blackadder ITC';fill:#000000;fill-opacity:1;stroke-width:0;stroke-dasharray:none"
         x="-20.429216"
         y="182.45992">W</tspan></text>
    <text
       xml:space="preserve"
       style="font-style:normal;font-variant:normal;font-weight:normal;font-stretch:normal;font-size:53.8886px;line-height:0;font-family:'Blackadder ITC';-inkscape-font-specification:'Blackadder ITC';text-align:start;writing-mode:lr-tb;direction:ltr;text-anchor:start;fill:#000000;fill-opacity:1;stroke:#000000;stroke-width:0;stroke-linejoin:bevel;stroke-dasharray:none;stroke-dashoffset:42.3307;stroke-opacity:0.68059"
       x="21.089989"
       y="178.11644"
       id="text11"
       transform="matrix(0.71279634,-0.36775556,0.37461132,1.2096507,0,0)"><tspan
         id="tspan11"
         style="font-style:normal;font-variant:normal;font-weight:normal;font-stretch:normal;font-family:Nyala;-inkscape-font-specification:Nyala;stroke-width:0"
         x="21.089989"
         y="178.11644">ው</tspan></text>
    <path
       style="fill:none;fill-opacity:1;stroke:#000000;stroke-width:7;stroke-linecap:round;stroke-linejoin:miter;stroke-dasharray:none;stroke-dashoffset:42.3307;stroke-opacity:1;paint-order:normal"
       d="m 106.22933,164.79753 c 0,0 -0.5994,-16.77395 13.04477,-37.19749 13.64417,-20.42353 30.11143,-24.73828 35.06747,-25.07472 20.23981,-1.37398 24.1365,28.30817 24.1365,28.30817 l -27.80907,-9.14039 5.91114,16.2905 -17.87912,-8.44352 3.0042,14.39643 -10.20855,-4.79962 -1.13449,9.36311 c 0,0 -8.08225,-12.99541 -24.13285,16.29753 z"
       id="path9" />
    <path
       style="fill:#dfe586;fill-opacity:1;stroke:#000000;stroke-width:0;stroke-linecap:round;stroke-linejoin:miter;stroke-dasharray:none;stroke-dashoffset:42.3307;stroke-opacity:1;paint-order:normal"
       d="m 224.49942,487.12199 c -0.0214,-10.94083 -1.18223,-16.182 -5.85498,-26.43568 -4.65161,-10.20729 -15.0867,-24.30993 -22.97346,-31.0478 -2.53773,-2.16806 -3.35755,-3.23657 -2.74151,-3.57315 0.93928,-0.51318 14.47976,-2.81529 33.01288,-5.61276 39.30523,-5.93291 63.99877,-15.858 94.65086,-38.04311 27.29995,-19.75892 30.19764,-21.57921 39.40255,-24.752 10.3787,-3.57739 20.00116,-2.61977 32.04335,3.18892 7.30283,3.5226 12.09357,8.24714 14.27512,14.07787 1.84292,4.92564 1.85712,12.97505 0.0355,20.11669 -2.67815,10.49958 -12.07179,26.47815 -18.58434,31.61199 -7.79593,6.1455 -26.07051,12.8996 -77.16001,28.51756 -12.71593,3.88724 -25.03782,7.84704 -27.38198,8.79956 -11.77387,4.78415 -35.39583,17.81794 -52.97196,29.22811 l -5.73281,3.72166 z"
       id="path22"
       transform="scale(0.26458333)" />
    <path
       style="fill:#dfe586;fill-opacity:1;stroke:#000000;stroke-width:0;stroke-linecap:round;stroke-linejoin:miter;stroke-dasharray:none;stroke-dashoffset:42.3307;stroke-opacity:1;paint-order:normal"
       d="m 231.21807,908.13645 c -13.17393,-3.45401 -25.17751,-13.12081 -33.34762,-26.85571 -6.46146,-10.86248 -11.72342,-27.63001 -14.42195,-45.95639 -1.74852,-11.87464 -3.02616,-36.85526 -2.26568,-44.29902 l 0.57525,-5.63066 34.47713,-22.69601 c 62.13328,-40.90183 69.04517,-45.50578 68.75428,-45.79667 -0.25658,-0.25658 -92.72929,5.83703 -103.58854,6.8261 l -4.37388,0.39839 -0.86194,-4.23751 c -1.76004,-8.65269 -9.51613,-38.8611 -13.72156,-53.44272 -14.23984,-49.37416 -29.05753,-86.07457 -46.61389,-115.45316 -12.59286,-21.07271 -17.49956,-35.26851 -17.49956,-50.62872 0,-18.05659 7.77902,-33.67427 25.84833,-51.89482 5.95055,-6.00036 8.27288,-7.86057 12.05643,-9.65734 10.94358,-5.19701 23.96238,-2.50608 37.03715,7.65543 6.74776,5.24425 16.22962,16.05789 15.04903,17.16274 -0.38662,0.36182 -45.51544,18.74206 -60.28372,24.55258 -0.91536,0.36014 -0.8549,1.05344 1.18387,13.57642 3.7544,23.06106 12.31104,40.24415 23.85647,47.90757 6.3075,4.18668 10.48769,5.15207 20.64689,4.76825 15.23109,-0.57544 19.95348,-2.55326 39.38647,-16.4957 27.19964,-19.51472 50.41798,-34.02578 69.73532,-43.58334 11.00035,-5.4426 13.88759,-6.52172 33.13821,-12.38561 11.59837,-3.53296 26.69621,-8.20781 33.55074,-10.38856 6.85455,-2.18076 12.60992,-3.96501 12.78972,-3.96501 0.1798,0 0.52915,4.14228 0.77631,9.20506 0.24716,5.06278 1.08322,16.86522 1.8579,26.22763 1.11086,13.42545 1.2386,17.29463 0.60451,18.30998 -0.4422,0.70806 -12.70269,15.59651 -27.24555,33.08544 -14.54286,17.48894 -26.28824,31.9514 -26.10082,32.13881 0.1874,0.18741 14.44229,-2.58613 31.67752,-6.16344 17.23523,-3.5773 31.61597,-6.54695 31.95721,-6.59922 0.34125,-0.0523 1.49154,3.06815 2.55621,6.93428 1.06466,3.86612 3.72271,13.13246 5.90677,20.59185 2.18407,7.4594 3.97103,14.42775 3.97103,15.48522 0,1.05747 -0.75314,3.92358 -1.67365,6.36914 -1.01812,2.7049 -1.67364,5.84112 -1.67364,8.00719 v 3.56072 l -6.46051,4.15602 c -3.55327,2.28581 -6.67165,3.91512 -6.92972,3.62068 -0.25807,-0.29444 -1.73229,-4.30105 -3.27602,-8.90358 -3.9197,-11.68622 -9.25405,-22.3843 -13.45138,-26.97686 -3.74116,-4.09342 -6.8092,-5.5342 -10.19917,-4.78965 -2.43443,0.53469 -8.80932,6.34663 -14.0755,12.8325 -1.85876,2.28927 -3.60997,4.01992 -3.89157,3.84588 -0.2816,-0.17404 -0.71887,-1.54086 -0.97171,-3.03738 -0.25283,-1.49651 -0.87732,-2.88119 -1.38773,-3.07706 -1.62485,-0.62351 -12.44871,7.18664 -18.68756,13.48434 -13.03683,13.1598 -17.599,27.33213 -16.89281,52.4773 0.40232,14.32555 1.79196,23.45139 5.83578,38.32399 4.90633,18.04472 9.50469,28.1504 15.25799,33.53193 7.4596,6.97758 13.35634,4.50372 26.20732,-10.99479 4.05124,-4.88587 8.39289,-9.57353 9.6481,-10.41703 1.2552,-0.84349 5.55941,-2.91449 9.5649,-4.60221 8.22072,-3.46382 11.62641,-5.60041 15.15815,-9.50963 9.10745,-10.08085 10.98904,-30.49389 5.12979,-55.65189 -0.72891,-3.12972 -1.47263,-6.16851 -1.65272,-6.75287 -0.23415,-0.75984 1.6157,-2.3562 6.49444,-5.60449 8.42004,-5.6061 8.55872,-5.5269 8.67531,4.9539 0.0433,3.8878 0.26919,10.08129 0.5021,13.76332 l 0.42346,6.69459 4.27047,-7.69878 c 2.34877,-4.23433 4.87134,-8.69831 5.60572,-9.91995 l 1.33523,-2.22117 2.71987,6.23793 c 3.58359,8.21886 18.15656,36.97626 25.45968,50.24058 3.18862,5.79134 5.7975,10.65526 5.7975,10.80872 0,0.53951 -14.47897,11.03439 -22.09214,16.01318 -37.46867,24.50338 -109.5785,52.83252 -165.62863,65.06902 -13.3275,2.90958 -28.05333,14.99849 -32.86462,26.97965 -6.90148,17.18616 -1.15153,36.66 16.51056,55.91765 l 3.57191,3.8946 23.74427,-16.43786 c 16.16241,-11.18905 23.89137,-16.17356 24.20498,-15.61013 1.98218,3.56118 2.53812,19.22865 0.90926,25.62442 -3.54949,13.9371 -14.6824,24.46693 -28.98588,27.41567 -6.74607,1.39074 -17.3431,1.24805 -23.29987,-0.31373 z m -1.33798,-221.56252 c 2.22511,-1.38044 3.61076,-3.69694 5.43233,-9.08161 1.6943,-5.00845 1.87591,-7.07495 1.07529,-12.23503 -0.60614,-3.90674 -0.55499,-5.11116 0.30444,-7.16807 0.56815,-1.35977 1.33295,-4.09489 1.69955,-6.07805 0.36661,-1.98316 1.10276,-4.44198 1.63589,-5.46404 0.53313,-1.02206 0.98077,-2.61144 0.99475,-3.53194 0.014,-0.92051 0.46772,-2.25843 1.00831,-2.97316 0.55398,-0.73242 0.9829,-2.73231 0.9829,-4.58286 0,-2.2516 0.43725,-3.89743 1.39145,-5.23748 0.7653,-1.07476 1.26807,-2.32427 1.11726,-2.77668 -0.1508,-0.45241 0.42224,-2.53646 1.27342,-4.63123 2.46667,-6.07051 2.99994,-9.5735 3.19238,-20.97031 0.1668,-9.87861 1.07166,-16.48084 2.47013,-18.02312 0.56138,-0.61909 3.23216,4.46894 3.26037,6.21126 0.008,0.49931 0.91847,2.04895 2.02308,3.44363 1.10461,1.39467 2.00838,3.01602 2.00838,3.60299 0,0.58696 0.90377,3.88859 2.00837,7.33695 1.10461,3.44835 2.00838,7.16008 2.00838,8.24828 0,1.0882 0.44231,2.56333 0.9829,3.27806 0.54059,0.71472 0.99247,2.57984 1.00419,4.1447 0.0117,1.56486 0.28541,2.8452 0.60822,2.8452 1.08623,0 3.59978,12.63266 3.0429,15.29305 -0.28179,1.34618 -0.4447,3.95389 -0.36204,5.79491 0.0827,1.84101 0.23427,5.60671 0.33689,8.36823 0.24946,6.71323 1.50805,10.71611 3.36324,10.69664 2.51925,-0.0264 6.73642,-2.40699 8.60579,-4.85785 1.99955,-2.62154 2.2036,-3.90418 1.11699,-7.02121 -0.55191,-1.58324 -0.47823,-2.74971 0.32272,-5.10886 0.72075,-2.12291 0.84988,-3.5518 0.42257,-4.67572 -0.39451,-1.03764 -0.35104,-2.47983 0.12111,-4.01827 0.55278,-1.80109 0.52965,-3.09012 -0.0927,-5.16747 -0.78534,-2.6212 -0.72021,-2.94316 1.22981,-6.08009 1.13248,-1.82178 2.05905,-3.75915 2.05905,-4.30528 0,-0.54611 0.47855,-1.91835 1.06344,-3.0494 0.69655,-1.34698 0.91819,-2.83067 0.64244,-4.30056 -0.28487,-1.5185 -0.0785,-2.76684 0.63832,-3.86082 0.78258,-1.19437 1.11955,-3.77861 1.28987,-9.8922 0.14336,-5.14563 0.63638,-9.54144 1.30356,-11.62277 0.59015,-1.84101 1.08081,-4.25106 1.09033,-5.35567 0.0192,-2.2288 1.31738,-6.37569 2.43808,-7.78837 0.39905,-0.50302 0.90819,-2.11962 1.1314,-3.59243 0.22321,-1.47281 1.06703,-5.53977 1.87514,-9.03769 0.80812,-3.49792 1.5906,-8.96786 1.73886,-12.15541 0.21648,-4.65437 0.52416,-6.02597 1.56257,-6.96571 0.77978,-0.7057 1.293,-2.0465 1.293,-3.37801 0,-1.21431 0.26542,-2.89985 0.58981,-3.74563 1.77443,-4.62639 3.54497,-10.68061 3.21888,-11.00669 -0.20619,-0.20619 0.81067,-2.72611 2.25969,-5.5998 1.44902,-2.8737 2.63459,-5.38061 2.63459,-5.57091 0,-0.96628 13.79797,-13.9146 15.20359,-14.26739 2.34405,-0.58832 4.32199,0.72006 6.52758,4.31793 1.72003,2.80579 1.98139,3.99704 2.4472,11.15422 0.55671,8.55377 -0.0864,16.22238 -1.68032,20.03722 -0.96701,2.31436 -3.99805,4.92063 -8.58291,7.38004 -2.20252,1.18149 -2.61356,1.20689 -4.97802,0.3077 -2.31571,-0.88066 -2.61625,-1.26951 -2.96143,-3.83161 -0.24031,-1.7837 -0.0749,-3.2744 0.44163,-3.98083 0.77356,-1.05791 0.90668,-1.05614 2.10458,0.0279 1.10294,0.99814 1.45159,1.03093 2.53539,0.23843 1.83595,-1.34247 1.70101,-11.18818 -0.18818,-13.73039 -1.88127,-2.53155 -4.87099,-2.63641 -7.88879,-0.27669 -4.09527,3.20225 -4.88471,5.53864 -4.48142,13.26305 0.42603,8.16015 2.05653,12.34379 5.18588,13.30627 1.10309,0.33927 3.02665,1.05796 4.27457,1.59708 3.38041,1.46038 6.98484,0.72486 10.05924,-2.05269 1.42129,-1.28404 3.50096,-2.53598 4.62151,-2.78209 1.12054,-0.24612 2.42202,-0.91098 2.89217,-1.47747 1.45504,-1.75322 4.53197,-9.64579 4.14925,-10.64315 -0.19943,-0.51972 0.0138,-2.51381 0.47375,-4.4313 0.46,-1.91748 0.89428,-7.8708 0.96508,-13.22959 0.11543,-8.73675 -0.0373,-10.22735 -1.47821,-14.42946 -0.88381,-2.57742 -2.11567,-5.28882 -2.73746,-6.02534 -4.16609,-4.93483 -11.52565,-3.52432 -18.24154,3.4961 -2.19157,2.29095 -5.60847,5.39134 -7.59312,6.88977 -1.98465,1.49842 -3.98086,3.62347 -4.43603,4.72234 -0.45516,1.09887 -1.6479,2.58206 -2.65052,3.29599 -1.54565,1.1006 -2.03837,2.30978 -3.23918,7.94914 -0.77894,3.6581 -2.35592,9.01597 -3.50439,11.90639 -1.18871,2.99168 -2.51444,8.13887 -3.07785,11.94989 -1.42118,9.61309 -4.1147,22.02621 -5.69735,26.25622 -0.74918,2.00235 -1.21001,4.43647 -1.02407,5.40915 0.18595,0.97269 -0.0449,2.8317 -0.51303,4.13115 -0.46811,1.29944 -1.1834,4.01954 -1.58954,6.04466 -0.40614,2.02511 -1.34973,5.92107 -2.09688,8.65769 -0.74715,2.73662 -1.36929,6.05044 -1.38253,7.36404 -0.015,1.48888 -0.61805,3.11471 -1.60123,4.31693 l -1.57715,1.92855 -0.40768,-1.92855 c -0.22422,-1.0607 -0.56656,-3.2842 -0.76075,-4.94111 -0.47617,-4.06292 -0.77393,-5.03795 -2.96443,-9.70715 -1.03642,-2.20922 -2.25789,-5.63099 -2.71438,-7.60394 -0.4565,-1.97296 -1.69206,-5.28678 -2.74571,-7.36405 -1.05365,-2.07727 -1.91955,-4.07825 -1.92421,-4.44661 -0.005,-0.36837 -1.19661,-1.96955 -2.64876,-3.55819 -3.83727,-4.19791 -4.31399,-6.19356 -3.33584,-13.96458 0.73916,-5.8724 1.10677,-6.95105 3.84938,-11.295 1.6677,-2.64142 3.88199,-5.37186 4.92064,-6.06765 1.03865,-0.69578 1.88933,-1.75163 1.89039,-2.34634 0.003,-1.59088 -2.58829,-4.60913 -3.95688,-4.60913 -1.1834,0 -5.745,4.10202 -7.17606,6.45307 -0.90796,1.49164 -2.731,1.28409 -4.69189,-0.53416 -1.43275,-1.32853 -1.43491,-1.32835 -4.85358,0.40401 -3.88395,1.96815 -3.93117,2.14702 -2.3405,8.86573 2.21591,9.35964 0.93636,23.25469 -3.12558,33.94167 -0.7154,1.88221 -1.30262,4.62723 -1.30494,6.10004 -0.002,1.47281 -0.31501,4.48537 -0.69486,6.69458 -0.37985,2.20922 -0.84692,5.8243 -1.03793,8.03351 -0.191,2.20921 -0.62424,5.22178 -0.96275,6.69459 -0.33851,1.47281 -0.62284,3.66751 -0.63184,4.87713 -0.009,1.20961 -0.46026,2.87676 -1.0028,3.70478 -0.54254,0.82801 -1.2807,3.45341 -1.64035,5.83421 -2.32723,15.40544 -2.924,16.42593 -4.03694,6.90312 -0.46671,-3.99333 -1.29177,-8.46563 -1.83349,-9.93844 -0.54172,-1.47281 -1.15131,-3.43098 -1.35465,-4.35148 -0.20333,-0.92051 -0.60474,-1.97491 -0.89201,-2.34311 -0.63172,-0.80968 -2.77369,-11.8103 -2.37689,-12.20709 0.15422,-0.15423 -0.31721,-1.63144 -1.04765,-3.28269 -0.73042,-1.65125 -1.44074,-4.41481 -1.57848,-6.14124 -0.76868,-9.63462 -1.70677,-16.49039 -2.62753,-19.20239 -0.57193,-1.68462 -1.04216,-4.33275 -1.04494,-5.88474 -0.005,-2.82678 -1.05473,-10.43732 -1.76036,-12.76333 -0.55931,-1.84373 -5.8529,-3.97711 -8.47686,-3.41628 -2.73032,0.58356 -3.62394,1.32568 -5.14812,4.27533 -1.50401,2.9106 -13.52624,15.21844 -19.27898,19.73698 -2.52682,1.98472 -4.35394,3.97716 -4.60434,5.02094 -0.22832,0.95177 -1.80317,3.2831 -3.49967,5.18074 -10.31516,11.53816 -11.74801,14.13285 -12.35743,22.3775 -0.23352,3.15918 -0.72164,6.62363 -1.08471,7.69877 -1.16323,3.44462 -1.27058,9.80137 -0.21957,13.00086 0.54429,1.65692 2.00926,5.15683 3.25549,7.77758 l 2.26586,4.76502 3.36547,0.44645 c 4.13819,0.54894 5.10828,0.0707 10.60805,-5.22924 7.25879,-6.99512 8.53251,-9.47674 10.51132,-20.47952 0.62909,-3.49793 1.41033,-6.88297 1.73609,-7.52233 0.71329,-1.39993 0.77029,-7.26409 0.0799,-8.22542 -0.27051,-0.3767 -1.28261,-1.18741 -2.24911,-1.80157 -1.70448,-1.08311 -1.84937,-1.05255 -4.82292,1.01708 -1.68611,1.17355 -3.68344,3.23294 -4.43851,4.57641 -0.75508,1.34347 -1.79486,2.60461 -2.31064,2.80254 -1.87552,0.7197 -1.94167,4.20813 -0.13818,7.28557 2.9026,4.95291 2.39973,10.49264 -1.35014,14.87351 -1.23945,1.44802 -2.25354,3.01334 -2.25354,3.47849 0,0.82021 -2.48733,2.93002 -3.4543,2.93002 -0.26321,0 -1.40507,-1.88285 -2.53747,-4.18411 -2.39707,-4.87131 -2.67137,-8.1671 -1.52234,-18.29137 0.91394,-8.05292 2.07045,-10.91236 7.34997,-18.17256 2.20032,-3.02581 4.35604,-6.35962 4.79049,-7.40847 0.4632,-1.11828 2.12508,-2.68678 4.01812,-3.79238 2.18044,-1.27345 3.85297,-2.95511 5.1531,-5.18125 1.58993,-2.72232 9.85218,-11.06695 11.67461,-11.79099 0.69849,-0.27751 1.52918,4.98957 0.93783,5.9464 -0.26276,0.42514 -0.727,1.86717 -1.03166,3.2045 -0.60248,2.64463 1.09164,9.58637 3.48992,14.30013 1.89683,3.72816 3.39282,10.94392 3.40432,16.42036 0.007,3.42479 0.38325,5.58964 1.27473,7.33823 0.6955,1.36417 1.26454,2.9521 1.26454,3.52872 0,0.57662 0.41151,1.64264 0.91447,2.36891 0.8257,1.19234 1.8802,5.34109 3.95203,15.54859 0.49876,2.45731 0.50368,4.43494 0.0163,6.5647 -0.53247,2.32691 -0.47672,3.80101 0.23566,6.23116 0.78456,2.67642 0.79201,3.80453 0.0468,7.08595 -1.07998,4.75528 -0.25956,10.84554 1.53785,11.41602 1.17589,0.37321 2.66933,3.02292 2.66933,4.73602 0,0.54653 0.40858,1.15049 0.90795,1.34211 1.16237,0.44605 0.54757,4.0431 -1.46393,8.565 -1.77214,3.98383 -1.77068,3.84854 -0.0649,6.01711 1.65389,2.10258 2.77693,2.19725 5.5628,0.46893 z"
       id="path23"
       transform="scale(0.26458333)" />
    <path
       style="fill:#dfe586;fill-opacity:1;stroke:#000000;stroke-width:0;stroke-linecap:round;stroke-linejoin:miter;stroke-dasharray:none;stroke-dashoffset:42.3307;stroke-opacity:1;paint-order:normal"
       d="m 166.53806,525.2988 c -1.27675,-1.4132 -3.26744,-4.57185 -4.42376,-7.0192 -2.08433,-4.41149 -4.59846,-12.29104 -4.06481,-12.73956 0.87228,-0.73313 39.04616,-15.77931 39.32542,-15.50005 0.54193,0.54192 -1.08708,13.69067 -2.23985,18.07925 -3.12556,11.89893 -8.14517,17.18947 -18.04571,19.01968 -6.73593,1.24521 -7.95614,1.0324 -10.55129,-1.84012 z"
       id="path24"
       transform="scale(0.26458333)" />
    <path
       style="fill:#dfe586;fill-opacity:1;stroke:#000000;stroke-width:0;stroke-linecap:round;stroke-linejoin:miter;stroke-dasharray:none;stroke-dashoffset:42.3307;stroke-opacity:1;paint-order:normal"
       d="m 321.89145,735.54883 c -4.71232,-3.10783 -8.31817,-10.91383 -13.21142,-28.60033 -4.83372,-17.47131 -7.02589,-31.34588 -7.03396,-44.51901 -0.007,-11.26639 0.83994,-16.02459 4.0172,-22.57164 2.08984,-4.3063 7.27506,-10.17698 8.15023,-9.22765 0.33944,0.3682 2.50108,9.4059 4.80365,20.08376 2.30257,10.67787 6.43082,29.31751 9.17388,41.42142 5.61311,24.76812 6.35522,29.40395 5.53633,34.58421 -0.64303,4.06783 -2.02564,6.29475 -5.28574,8.51355 -2.66239,1.81201 -3.79332,1.87006 -6.15017,0.31569 z"
       id="path25"
       transform="scale(0.26458333)" />
    <path
       style="fill:#dfe586;fill-opacity:1;stroke:#000000;stroke-width:0;stroke-linecap:round;stroke-linejoin:miter;stroke-dasharray:none;stroke-dashoffset:42.3307;stroke-opacity:1;paint-order:normal"
       d="m 352.29032,713.75655 c -3.78566,-2.10209 -5.99612,-7.69767 -10.22656,-25.88762 -5.43185,-23.35576 -13.35948,-58.88823 -13.35948,-59.87857 0,-1.43234 7.02347,-8.1756 9.04336,-8.68256 5.80655,-1.45735 12.18933,8.26153 18.71447,28.49603 11.42261,35.42158 12.05001,60.22351 1.65756,65.52535 -2.98877,1.52475 -3.75228,1.58073 -5.82935,0.42737 z"
       id="path26"
       transform="scale(0.26458333)" />
    <path
       style="fill:#dfe586;fill-opacity:1;stroke:#000000;stroke-width:0;stroke-linecap:round;stroke-linejoin:miter;stroke-dasharray:none;stroke-dashoffset:42.3307;stroke-opacity:1;paint-order:normal"
       d="m 310.03462,853.39262 c -1.89353,-10.36267 -7.78231,-24.05639 -13.94527,-32.42818 -1.62768,-2.21105 -2.86317,-4.07702 -2.74554,-4.14659 0.11763,-0.0696 9.10094,-3.07249 19.96291,-6.67314 58.8445,-19.50647 98.94204,-39.05462 134.2639,-65.45566 19.8958,-14.87096 32.47725,-20.66935 44.84874,-20.66935 6.33441,0 10.88625,1.19941 17.37352,4.57791 6.43301,3.35024 11.16181,8.10361 12.97882,13.04624 6.78159,18.44727 -0.98287,37.18249 -18.74782,45.2375 -5.85306,2.6539 -10.24308,3.71722 -23.68718,5.73734 -73.95354,11.11228 -128.49474,31.60085 -165.00418,61.98432 -2.18654,1.81965 -4.08727,3.30846 -4.22386,3.30846 -0.13658,0 -0.61991,-2.03349 -1.07404,-4.51885 z"
       id="path27"
       transform="scale(0.26458333)" />
    <path
       style="fill:#dfe586;fill-opacity:1;stroke:#000000;stroke-width:0;stroke-linecap:round;stroke-linejoin:miter;stroke-dasharray:none;stroke-dashoffset:42.3307;stroke-opacity:1;paint-order:normal"
       d="m 239.71291,847.40897 c -1.73652,-6.2535 -0.38955,-10.71736 4.49344,-14.89121 7.82422,-6.68794 15.77858,-7.82409 22.10418,-3.15722 l 2.0903,1.54218 -13.45603,9.32026 c -7.40081,5.12614 -13.69615,9.41423 -13.98963,9.5291 -0.29349,0.11486 -0.85251,-0.93954 -1.24226,-2.34311 z"
       id="path28"
       transform="scale(0.26458333)" />
    <path
       style="fill:#a0892c;fill-opacity:1;stroke:#000000;stroke-width:0;stroke-linecap:round;stroke-linejoin:miter;stroke-dasharray:none;stroke-dashoffset:42.3307;stroke-opacity:1;paint-order:normal"
       d="m 427.53105,559.25816 c 1.14372,-4.74626 7.91621,-20.99124 13.60531,-32.63473 26.92662,-55.10878 66.58198,-96.69659 110.73017,-116.12616 26.59319,-11.70364 46.09613,-12.2889 63.59596,-1.90843 6.23807,3.70026 15.77039,13.37641 21.16569,21.48505 2.47757,3.72355 6.46104,10.86152 8.85218,15.86215 4.24414,8.87582 11.22983,27.78639 10.2645,27.78639 -0.26657,0 -24.60723,-7.92319 -54.09034,-17.60708 -29.4831,-9.6839 -53.76749,-17.44525 -53.96529,-17.24745 -0.1978,0.1978 4.11611,12.64913 9.58647,27.66961 5.47037,15.02048 9.8091,27.44701 9.64161,27.61449 -0.16748,0.16747 -14.004,-6.16202 -30.74784,-14.06554 -16.74383,-7.90352 -30.5244,-14.26907 -30.62348,-14.14567 -0.0991,0.1234 2.26689,11.8586 5.25771,26.07823 2.99082,14.21963 5.35743,26.24756 5.25914,26.72875 -0.0983,0.48117 -6.80128,-2.24977 -14.89553,-6.06876 -8.09425,-3.819 -14.9398,-6.71853 -15.21234,-6.44341 -0.27254,0.27513 -1.30776,7.50878 -2.30049,16.07479 l -1.80496,15.57455 -4.06355,-0.6842 c -10.16691,-1.71188 -23.92113,2.35332 -35.08818,10.37066 -2.18763,1.57061 -6.62345,5.37532 -9.85737,8.45492 -5.35665,5.10103 -5.8291,5.3886 -5.30937,3.23184 z"
       id="path30"
       transform="scale(0.26458333)" />
  </g>
</svg>
